# This file uses centimeters as units for non-parametric coordinates.

mtllib Door_Glass.mtl
g default
v 0.684902 2.778758 0.083243
v 0.675241 2.983147 0.080607
v -0.658372 2.994289 0.080246
v -0.670085 2.759208 0.074472
v 0.665845 2.498911 0.077720
v -0.669680 2.488021 0.077608
v -0.684902 2.778758 -0.089308
v -0.675241 2.983147 -0.086672
v 0.658372 2.994289 -0.086311
v 0.670085 2.759208 -0.080537
v -0.665845 2.498911 -0.083785
v 0.669680 2.488021 -0.083673
vt 0.704598 0.744929
vt 0.702143 0.796909
vt 0.363063 0.799754
vt 0.360062 0.739932
vt 0.699733 0.673738
vt 0.360166 0.670967
vt 0.704598 0.744929
vt 0.702143 0.796909
vt 0.363063 0.799754
vt 0.360062 0.739932
vt 0.699733 0.673738
vt 0.360166 0.670967
vn -0.003308 -0.005534 0.999979
vn -0.003374 -0.007126 0.999969
vn -0.003374 -0.007126 0.999969
vn -0.003306 -0.005474 0.999980
vn -0.003254 -0.004222 0.999986
vn -0.003308 -0.005534 0.999979
vn -0.003306 -0.005474 0.999980
vn -0.003254 -0.004222 0.999986
vn 0.003308 -0.005534 -0.999979
vn 0.003374 -0.007126 -0.999969
vn 0.003374 -0.007126 -0.999969
vn 0.003306 -0.005474 -0.999980
vn 0.003254 -0.004222 -0.999986
vn 0.003308 -0.005534 -0.999979
vn 0.003306 -0.005474 -0.999980
vn 0.003254 -0.004222 -0.999986
s off
g polySurface13
usemtl aiStandardSurface1SG
f 1/1/1 2/2/2 3/3/3 4/4/4
f 5/5/5 1/1/6 4/4/7 6/6/8
f 7/7/9 8/8/10 9/9/11 10/10/12
f 11/11/13 7/7/14 10/10/15 12/12/16
